<?xml version="1.0" encoding="utf-8"?>
<!-- Generator: Adobe Illustrator 27.6.1, SVG Export Plug-In . SVG Version: 6.00 Build 0)  -->
<svg version="1.1" id="Background" xmlns="http://www.w3.org/2000/svg" xmlns:xlink="http://www.w3.org/1999/xlink" x="0px" y="0px"
	 viewBox="0 0 792 1051.38" style="enable-background:new 0 0 792 1051.38;" xml:space="preserve">
<style type="text/css">
	.st0{fill-rule:evenodd;clip-rule:evenodd;fill:#002345;}
	.st1{fill-rule:evenodd;clip-rule:evenodd;fill:none;stroke:#000000;stroke-width:0.25;stroke-miterlimit:3.8637;}
	.st2{fill-rule:evenodd;clip-rule:evenodd;fill:#FFFFFF;}
	.st3{fill:#002345;}
	.st4{fill-rule:evenodd;clip-rule:evenodd;fill:#B61615;}
	.st5{fill:#325478;}
</style>
<g>
	<g>
		<rect x="0.14" y="0.14" class="st0" width="792" height="849.99"/>
		<rect x="0.14" y="0.14" class="st1" width="792" height="849.99"/>
	</g>
	<g>
		<path class="st2" d="M204.03,760.04l17.11,45.74h72.97l-99.15-263.25h-74.71L18.99,805.78h72.62l18.16-45.74H204.03z
			 M185.53,707.67h-56.91l28.28-83.79h0.7L185.53,707.67z"/>
		<rect x="312.68" y="542.53" class="st2" width="68.43" height="263.25"/>
		<polygon class="st2" points="555.51,600.49 555.51,542.53 405.73,542.53 405.73,805.78 555.51,805.78 555.51,747.82 
			474.16,747.82 474.16,702.43 551.32,702.43 551.32,644.48 474.16,644.48 474.16,600.49 		"/>
		<path class="st2" d="M577.61,805.78h68.43v-87.28h38.75c59.7,0,93.22-27.23,93.22-89.38c0-60.4-39.1-86.59-95.66-86.59H577.61
			V805.78z M646.04,597.69h11.52c26.53,0,49.23,0.35,49.23,33.52c0,32.12-24.44,32.12-49.23,32.12h-11.52V597.69z"/>
	</g>
	<g>
		<path class="st3" d="M754.1,896.61v33.92h3.54c9.4,0,17.44-5.14,17.44-16.96c0-10.85-7.15-16.96-17.28-16.96H754.1z
			 M738.35,943.87v-60.6h22.34c16.88,0,30.78,13.26,30.78,30.3c0,17.04-13.99,30.3-30.78,30.3H738.35z M55.58,1035.43H28.22
			l-5.27,13.28H1.87l29.39-76.41h21.69l28.78,76.41H60.55L55.58,1035.43z M50.21,1020.23l-8.11-24.32l-8.41,24.32H50.21z
			 M89.02,1048.7v-76.41h19.86l36.38,46.72l0.2-46.72h19.86v76.41h-19.86l-36.38-46.82l-0.2,46.82H89.02z M179.41,1048.7v-76.41
			h28.17c21.28,0,38.81,16.72,38.81,38.2c0,21.49-17.63,38.21-38.81,38.21H179.41z M199.28,989.12v42.77h4.46
			c11.86,0,21.99-6.49,21.99-21.38c0-13.68-9.02-21.38-21.79-21.38H199.28z M296.27,1017.39l24.02,31.31h-24.73l-18.75-29.39
			l-0.2,29.39h-19.86v-76.41h29.69c15.1,0,26.55,7.2,26.55,23.51C312.99,1006.34,307.12,1015.46,296.27,1017.39z M276.61,987.49
			v19.05h1.93c6.49,0,13.78-1.21,13.78-9.53c0-8.31-7.3-9.53-13.78-9.53H276.61z M370.25,989.12h-23.61v12.77h22.4v16.82h-22.4
			v13.17h23.61v16.82h-43.48v-76.41h43.48V989.12z M433.48,976.55l-7.9,15.4c-3.65-3.04-8.31-5.07-13.17-5.07
			c-3.65,0-8.51,2.13-8.51,6.39c0,4.46,5.37,6.18,8.82,7.3l5.07,1.52c10.64,3.14,18.85,8.51,18.85,20.88c0,7.6-1.82,15.4-7.9,20.57
			c-5.98,5.07-13.99,7.19-21.69,7.19c-9.63,0-19.05-3.24-26.86-8.72l8.51-16.01c4.97,4.36,10.84,7.9,17.63,7.9
			c4.66,0,9.63-2.33,9.63-7.7c0-5.57-7.8-7.5-12.06-8.71c-12.47-3.55-20.67-6.79-20.67-21.59c0-15.51,11.05-25.64,26.35-25.64
			C417.27,970.27,426.69,972.7,433.48,976.55z M501.01,1017.09v16.42h2.53c5.88,0,15.81,0.3,15.81-8.11c0-9.22-9.83-8.31-16.32-8.31
			H501.01z M511.76,1048.7h-30.61v-76.41h28.38c13.58,0,22.7,5.27,22.7,19.86c0,6.89-2.23,12.47-8.41,15.61
			c10.95,1.62,15.61,9.02,15.61,19.66C539.42,1043.43,525.74,1048.7,511.76,1048.7z M501.01,987.49v14.8h2.23
			c5.27,0,10.74-0.91,10.74-7.4c0-6.99-6.18-7.4-11.55-7.4H501.01z M594.34,989.12h-23.61v12.77h22.4v16.82h-22.4v13.17h23.61v16.82
			h-43.48v-76.41h43.48V989.12z M627.57,972.29v59.59h23.82v16.82h-43.68v-76.41H627.57z M678.84,972.29v59.59h23.82v16.82h-43.68
			v-76.41H678.84z M748.65,969.76c21.99,0,42.26,16.21,42.26,39.32c0,24.73-17.73,42.16-42.26,42.16
			c-24.52,0-42.26-17.43-42.26-42.16C706.4,985.97,726.66,969.76,748.65,969.76z M748.65,989.01c-11.86,0-21.59,9.63-21.59,20.17
			c0,13.17,9.73,22.8,21.59,22.8c11.86,0,21.59-9.63,21.59-22.8C770.24,998.64,760.51,989.01,748.65,989.01z M7.42,943.87v-60.6
			h22.34c16.88,0,30.78,13.26,30.78,30.3c0,17.04-13.99,30.3-30.78,30.3H7.42z M23.17,896.61v33.92h3.54
			c9.4,0,17.44-5.14,17.44-16.96c0-10.85-7.15-16.96-17.28-16.96H23.17z M99.6,896.61H80.87v10.13h17.76v13.34H80.87v10.45H99.6
			v13.34H65.12v-60.6H99.6V896.61z M202.78,933.34h-21.7l-4.18,10.53h-15.24h-1.48h-33.17v-60.6h15.75v47.26h18.89v9.51l21.83-56.77
			h17.2l22.83,60.6h-16.8L202.78,933.34z M198.52,921.28L192.09,902l-6.67,19.29H198.52z M284.52,883.27h15.75v34.08
			c0,7.8-0.32,15.51-6.35,21.38c-5.06,4.98-13.02,6.75-20.09,6.75c-7.07,0-15.03-1.77-20.09-6.75c-6.03-5.87-6.35-13.58-6.35-21.38
			v-34.08h15.75v31.91c0,7.88,0.56,16.48,10.69,16.48c10.13,0,10.69-8.6,10.69-16.48V883.27z M307.49,943.87v-60.6h15.75
			l28.85,37.05l0.16-37.05h15.75v60.6h-15.75l-28.85-37.13l-0.16,37.13H307.49z M391.3,883.27v60.6h-15.75v-60.6H391.3z
			 M409.6,883.27l14.63,36.81l14.71-36.81h17.12l-25.88,60.6h-12.22l-25.48-60.6H409.6z M491.73,896.61H473v10.13h17.76v13.34H473
			v10.45h18.73v13.34h-34.48v-60.6h34.48V896.61z M530.04,919.03l19.05,24.84h-19.61l-14.87-23.31l-0.16,23.31h-15.75v-60.6h23.55
			c11.98,0,21.06,5.71,21.06,18.65C543.3,910.27,538.64,917.51,530.04,919.03z M514.45,895.32v15.11h1.53
			c5.14,0,10.93-0.96,10.93-7.55c0-6.59-5.79-7.56-10.93-7.56H514.45z M590.14,886.64l-6.27,12.22c-2.89-2.41-6.59-4.02-10.45-4.02
			c-2.89,0-6.75,1.69-6.75,5.06c0,3.54,4.26,4.9,6.99,5.79l4.02,1.21c8.44,2.49,14.95,6.75,14.95,16.56
			c0,6.03-1.45,12.22-6.27,16.32c-4.74,4.02-11.09,5.71-17.2,5.71c-7.64,0-15.11-2.57-21.3-6.91l6.75-12.7
			c3.94,3.46,8.6,6.27,13.98,6.27c3.7,0,7.64-1.85,7.64-6.11c0-4.42-6.19-5.95-9.56-6.91c-9.89-2.81-16.4-5.39-16.4-17.12
			c0-12.3,8.76-20.33,20.9-20.33C577.28,881.66,584.75,883.59,590.14,886.64z M613.1,883.27v60.6h-15.75v-60.6H613.1z
			 M620.64,943.87v-60.6h22.34c16.88,0,30.78,13.26,30.78,30.3c0,17.04-13.99,30.3-30.78,30.3H620.64z M636.39,896.61v33.92h3.54
			c9.4,0,17.44-5.14,17.44-16.96c0-10.85-7.15-16.96-17.28-16.96H636.39z M715.47,933.34h-21.7l-4.18,10.53h-16.72l23.31-60.6h17.2
			l22.83,60.6h-16.8L715.47,933.34z M711.21,921.28L704.78,902l-6.67,19.29H711.21z"/>
	</g>
	<g>
		<rect x="435.24" y="332.45" class="st4" width="92.45" height="154.8"/>
		<rect x="682.54" y="332.45" class="st4" width="92.45" height="154.8"/>
		<polygon class="st4" points="555.06,333.4 605.11,283.35 655.16,333.4 655.16,487.24 555.06,487.24 		"/>
	</g>
	<g>
		<path class="st5" d="M388.75,399.17c0-143.43,96.93-259.71,216.5-259.71c79.68,0,149.3,51.63,186.89,128.52v22.46
			c-33.39-84.6-104.52-143.02-186.89-143.02c-114.41,0-207.15,112.71-207.15,251.74c0,30.98,4.61,60.66,13.03,88.07h-9.61
			C393.26,459.74,388.75,430.09,388.75,399.17z M302.72,395.88c0-189.95,135.24-343.93,302.07-343.93
			c70.77,0,135.86,27.71,187.35,74.12v19.67c-50.19-50.39-115.69-80.89-187.35-80.89c-157.97,0-286.02,148.2-286.02,331.02
			c0,31.69,3.85,62.35,11.03,91.37h-16.3C306.47,458.15,302.72,427.51,302.72,395.88z M404.22,397.37
			c0-133.83,89.97-242.32,200.96-242.32c84.91,0,157.52,63.5,186.95,153.26v6.03c-27.9-91.35-100.5-156.62-185.81-157.2v127.42
			l-1.22-1.22l-1.16,1.16V157.14c-109.43,0.8-197.94,108.04-197.94,240.23c0,31.78,5.11,62.11,14.4,89.87h-1.92
			C409.29,459.45,404.22,429.13,404.22,397.37z M792.12,235.72v5.1c-5.34,1.05-9.96-2.2-12.88-6.69l-4.94-7.61l17.82-11.57v5.78
			l-11.15,7.24l2.02,3.11C785.07,234.25,788.12,236.98,792.12,235.72z M329.84,368.6l0.67-4.8l25.25,3.55
			c6.98,0.98,13.71,0,14.75-7.4c1.04-7.41-5.16-10.2-12.14-11.18l-25.25-3.55l0.67-4.8l27.07,3.8c9.42,1.32,15.89,7.6,14.65,16.43
			c-1.24,8.84-9.19,13.08-18.61,11.76L329.84,368.6z M377.92,338.15l-43.93-10.95l40.03-20.1l-30.97-7.72l1.17-4.7l43.65,10.88
			l-40.03,20.1l31.25,7.79L377.92,338.15z M350.52,277.5l40.6,14.78l-1.66,4.56l-40.6-14.78L350.52,277.5z M355.64,263.61l33.88,3
			l-24.1-23.98l2.25-4.81l34.11,34.51l-48.39-3.9L355.64,263.61z M409.51,251.27l-37.04-22.25l10.76-17.9l4.22,2.54l-8.26,13.75
			l10.36,6.23l8.02-13.35l4.22,2.54l-8.02,13.35l14,8.41l8.26-13.75l4.22,2.54L409.51,251.27z M417.14,205.86l22.37,1.9l-3.62,4.63
			l-21.45-2.23l-1.24,1.58L427.6,223l-2.98,3.82l-34.05-26.6l3.62-4.63c2.13-2.72,4.46-5.61,7.9-6.85
			c3.67-1.26,8.02-0.21,11.27,2.33C418.23,194.87,420.01,200.97,417.14,205.86z M397.34,199.36l12.33,9.63l0.95-1.22
			c3.05-3.9,5.54-8.76,0.12-13c-5.33-4.16-9.65-0.21-12.61,3.57L397.34,199.36z M430.49,161.94l-0.75,4.59
			c-2.95-0.78-5.23-0.36-7.23,1.79c-2.11,2.26-2.71,6.35,0.05,8.93c2.47,2.31,5.81,1.33,8.22,0.26l2.78-1.22
			c5.52-2.39,10.81-3.11,16.09,1.82c5.74,5.35,6.12,13.18,1.37,18.27c-4.29,4.6-11.4,4.67-17.04,0.54l2.5-4.36
			c3.44,3.28,8.28,3.14,11.13,0.08c2.85-3.06,2.04-7.9-1.27-10.99c-3.39-3.17-7.15-2.08-10.57-0.69l-2.75,1.1
			c-4.58,1.8-9.37,2.83-13.77-1.28c-5.11-4.77-4.37-11.69-0.36-15.99C421.85,161.64,425.99,160.64,430.49,161.94z M439.87,146.4
			l28.35,32.61l-3.66,3.18l-28.35-32.61L439.87,146.4z M474.61,172.94l-24.16-35.82l6.67-4.5c9.88-6.66,22-6.4,30.04,5.52
			c8.24,12.21,4.17,23.52-6.01,30.39L474.61,172.94z M457.22,138.49l18.65,27.65l1.41-0.95c8.21-5.54,13-13.75,5.98-24.15
			c-7.05-10.45-16.42-9.04-24.63-3.5L457.22,138.49z M521.13,133.42l-16.17,7.54l0.56,11.69l-4.72,2.2l-2.21-48.67l35.86,32.98
			l-4.72,2.2L521.13,133.42z M517.23,129.8l-13.65-12.92l1.12,18.76L517.23,129.8z M538,138.53l-11.18-41.74l7.77-2.08
			c11.51-3.08,22.88,1.11,26.6,15c3.81,14.23-3.71,23.6-15.57,26.78L538,138.53z M532.77,100.3l8.63,32.21l1.64-0.44
			c9.56-2.56,16.77-8.76,13.52-20.89c-3.26-12.18-12.59-13.89-22.15-11.33L532.77,100.3z M613.06,118.31L595.21,118l-4.62,10.75
			l-5.21-0.09l19.35-44.71l17.78,45.36l-5.21-0.09L613.06,118.31z M611.13,113.35l-6.6-17.6l-7.22,17.35L611.13,113.35z
			 M625.38,129.81l10.18-44.11l20.8,39.68l7.18-31.1l4.72,1.09l-10.12,43.83l-20.8-39.68l-7.24,31.38L625.38,129.81z M664.89,139.56
			l18.26-39.16l7.29,3.4c10.8,5.04,16.82,15.56,10.74,28.59c-6.22,13.35-18.01,15.69-29.14,10.5L664.89,139.56z M685.46,106.91
			l-14.1,30.23l1.54,0.72c8.97,4.18,18.48,4.06,23.78-7.31c5.33-11.43-0.71-18.73-9.69-22.92L685.46,106.91z M717.83,145.65
			l0.45,22.44l-4.99-3.12l-0.02-21.57l-1.71-1.07l-9.69,15.5l-4.11-2.57l22.9-36.64l4.99,3.12c2.93,1.83,6.05,3.85,7.64,7.14
			c1.63,3.52,1.05,7.95-1.14,11.45C728.87,145.6,722.99,148,717.83,145.65z M722.22,125.29l-8.29,13.27l1.31,0.82
			c4.2,2.62,9.29,4.59,12.94-1.24c3.58-5.74-0.8-9.62-4.87-12.16L722.22,125.29z M722.2,171.67l27.77-33.1l16,13.43l-3.17,3.78
			l-12.29-10.31l-7.77,9.26l11.93,10.01l-3.17,3.78l-11.93-10.01l-10.5,12.51l12.29,10.31l-3.17,3.78L722.2,171.67z M785.78,180.34
			l-4.52-1.07c0.99-2.89,0.72-5.19-1.28-7.34c-2.11-2.26-6.15-3.15-8.92-0.57c-2.47,2.31-1.73,5.7-0.83,8.18l1.02,2.86
			c2,5.68,2.34,11-2.94,15.92c-5.74,5.35-13.58,5.19-18.33,0.09c-4.29-4.6-3.86-11.7,0.65-17.03l4.18,2.8
			c-3.51,3.21-3.71,8.04-0.86,11.1c2.85,3.06,7.74,2.59,11.05-0.5c3.39-3.17,2.58-6.99,1.42-10.49l-0.91-2.82
			c-1.47-4.69-2.16-9.55,2.24-13.65c5.11-4.77,11.97-3.55,15.98,0.75C786.69,171.73,787.39,175.94,785.78,180.34z"/>
	</g>
</g>
</svg>
